<svg width="92" height="33" viewBox="0 0 92 33" fill="none" xmlns="http://www.w3.org/2000/svg">
<path d="M1.84475 32.256C0.927417 31.7227 0.330083 30.912 0.05275 29.824C0.735417 29.3547 1.45008 28.768 2.19675 28.064C2.94342 27.3387 3.59408 26.624 4.14875 25.92C3.85008 24.384 3.70075 22.304 3.70075 19.68V10.784C3.70075 9.01333 3.75408 7.584 3.86075 6.496C3.98875 5.408 4.19142 4.50133 4.46875 3.776C4.87408 2.70933 5.46075 1.888 6.22875 1.312C6.99675 0.735998 7.90342 0.447998 8.94875 0.447998C10.3994 0.447998 11.5621 1.16267 12.4368 2.592C13.3114 4 13.7488 5.89867 13.7488 8.288C13.7488 10.144 13.5674 11.9787 13.2048 13.792C12.8634 15.584 12.3941 17.3013 11.7968 18.944C11.1994 20.5867 10.5168 22.0907 9.74875 23.456C8.98075 24.8213 8.18075 25.9947 7.34875 26.976C7.39142 27.0827 7.44475 27.1893 7.50875 27.296C7.95675 28.0853 8.47942 28.672 9.07675 29.056C9.69542 29.4187 10.4528 29.6 11.3488 29.6C12.3088 29.6 13.1514 29.3333 13.8768 28.8C14.6021 28.2667 15.1674 27.5307 15.5728 26.592C15.9781 25.632 16.1808 24.5333 16.1808 23.296C16.1808 22.848 16.1488 22.4 16.0848 21.952C14.7408 21.0987 13.8554 20.3413 13.4288 19.68C13.5781 19.2533 13.8128 18.848 14.1328 18.464C14.4741 18.0587 14.8474 17.7387 15.2528 17.504C15.6581 17.248 16.0421 17.12 16.4048 17.12C16.8954 17.12 17.3434 17.3867 17.7488 17.92C18.1541 18.432 18.4741 19.1253 18.7088 20C18.9648 20.8533 19.0928 21.8027 19.0928 22.848C19.0928 24.768 18.7728 26.4427 18.1328 27.872C17.5141 29.28 16.6181 30.3787 15.4448 31.168C14.2928 31.936 12.9274 32.32 11.3488 32.32C8.51142 32.32 6.47408 31.2533 5.23675 29.12C4.81008 29.6107 4.31942 30.1227 3.76475 30.656C3.21008 31.1893 2.57008 31.7227 1.84475 32.256ZM6.38875 19.04C6.38875 20.8533 6.44208 22.336 6.54875 23.488C7.38075 22.2293 8.13808 20.768 8.82075 19.104C9.50342 17.4187 10.0368 15.648 10.4208 13.792C10.8261 11.9147 11.0288 10.0693 11.0288 8.256C11.0288 4.82133 10.2821 3.104 8.78875 3.104C7.91408 3.104 7.28475 3.69066 6.90075 4.864C6.55942 5.90933 6.38875 7.75467 6.38875 10.4V19.04ZM29.9913 32.448C28.6473 32.448 27.4633 32.128 26.4393 31.488C25.4366 30.848 24.6473 29.952 24.0713 28.8C23.5166 27.648 23.2393 26.3253 23.2393 24.832C23.2393 23.5307 23.4526 22.3253 23.8793 21.216C21.8099 21.7067 19.5699 21.952 17.1592 21.952C16.8392 21.952 16.5832 21.824 16.3912 21.568C16.1992 21.2907 16.1032 20.9493 16.1032 20.544C16.1032 19.6693 16.4552 19.232 17.1592 19.232C20.7646 19.232 24.0713 18.6133 27.0793 17.376C28.1459 16.7573 29.3086 16.448 30.5673 16.448C31.3139 16.448 32.0499 16.5973 32.7753 16.896C33.5006 17.1733 34.1086 17.5573 34.5993 18.048V16.736C34.7913 16.672 35.0153 16.6187 35.2713 16.576C35.5273 16.5333 35.7939 16.512 36.0713 16.512C36.5833 16.512 37.0633 16.5867 37.5113 16.736V26.4C37.5113 27.5733 37.6606 28.416 37.9593 28.928C38.2793 29.44 38.7806 29.696 39.4633 29.696C39.7619 29.696 39.9859 29.824 40.1353 30.08C40.3059 30.336 40.3913 30.6773 40.3913 31.104C40.3913 31.4453 40.2953 31.7547 40.1033 32.032C39.9326 32.3093 39.6446 32.448 39.2393 32.448C37.2126 32.448 35.8473 31.616 35.1433 29.952C34.5246 30.7413 33.7779 31.36 32.9033 31.808C32.0286 32.2347 31.0579 32.448 29.9913 32.448ZM26.2153 24.832C26.2153 26.3467 26.5566 27.5413 27.2393 28.416C27.9433 29.2693 28.9033 29.696 30.1193 29.696C31.4633 29.696 32.5406 29.2373 33.3513 28.32C34.1833 27.4027 34.5993 26.1973 34.5993 24.704V21.12C34.1726 20.544 33.6286 20.0853 32.9673 19.744C32.3059 19.3813 31.6233 19.2 30.9193 19.2C30.0019 19.2 29.1913 19.4453 28.4873 19.936C27.7833 20.4267 27.2286 21.0987 26.8233 21.952C26.4179 22.784 26.2153 23.744 26.2153 24.832ZM39.244 32.448C38.9667 32.448 38.7427 32.32 38.572 32.064C38.4013 31.808 38.316 31.4773 38.316 31.072C38.316 30.1547 38.7 29.696 39.468 29.696C40.4067 29.696 41.2387 29.312 41.964 28.544C42.7107 27.7547 43.2973 26.688 43.724 25.344C44.172 24 44.396 22.5067 44.396 20.864C44.396 20.48 44.3747 20.128 44.332 19.808C44.2893 19.488 44.236 19.2213 44.172 19.008C43.98 18.816 43.7667 18.5067 43.532 18.08C43.3187 17.6533 43.1267 17.2053 42.956 16.736C42.8067 16.2453 42.732 15.8507 42.732 15.552C42.988 15.1467 43.3933 14.8373 43.948 14.624C44.524 14.3893 45.1533 14.3253 45.836 14.432C46.2413 15.1787 46.572 16.1173 46.828 17.248C47.468 17.2267 48.332 17.088 49.42 16.832C50.1027 16.6827 50.6467 16.5867 51.052 16.544C51.4787 16.48 51.8413 16.448 52.14 16.448C53.292 16.448 54.1987 16.8853 54.86 17.76C55.5213 18.6133 55.852 19.776 55.852 21.248V26.4C55.852 27.5733 56.0013 28.416 56.3 28.928C56.62 29.44 57.1213 29.696 57.804 29.696C58.1027 29.696 58.3267 29.824 58.476 30.08C58.6467 30.336 58.732 30.6773 58.732 31.104C58.732 31.4453 58.636 31.7547 58.444 32.032C58.2733 32.3093 57.9853 32.448 57.58 32.448C54.4867 32.448 52.94 30.5493 52.94 26.752V21.792C52.94 20.832 52.8333 20.16 52.62 19.776C52.4067 19.392 52.0227 19.2 51.468 19.2C51.276 19.2 51.0627 19.2213 50.828 19.264C50.5933 19.3067 50.1773 19.392 49.58 19.52C48.5347 19.7333 47.7453 19.8613 47.212 19.904C47.2333 20.2453 47.244 20.5867 47.244 20.928C47.244 23.232 46.9133 25.248 46.252 26.976C45.5907 28.704 44.652 30.048 43.436 31.008C42.2413 31.968 40.844 32.448 39.244 32.448ZM57.8117 29.696C58.3451 29.696 58.9531 29.536 59.6358 29.216C60.3398 28.896 61.0224 28.352 61.6838 27.584C62.3451 26.816 62.8891 25.7813 63.3158 24.48C63.7424 23.1573 63.9558 21.504 63.9558 19.52V16.448H61.5878C61.4384 16.1067 61.3638 15.68 61.3638 15.168C61.3638 14.656 61.4384 14.2293 61.5878 13.888H63.9558V8.224C64.3611 8.07467 64.8518 8 65.4278 8C65.9398 8 66.4304 8.07467 66.8998 8.224V13.888H71.6678C71.8384 14.2293 71.9238 14.656 71.9238 15.168C71.9238 15.68 71.8384 16.1067 71.6678 16.448H66.8998V23.072C66.8998 25.2053 67.2198 26.848 67.8598 28C68.5211 29.1307 69.4491 29.696 70.6438 29.696C71.2624 29.696 71.5718 30.1653 71.5718 31.104C71.5718 31.5093 71.4651 31.8293 71.2518 32.064C71.0598 32.32 70.7824 32.448 70.4198 32.448C69.0331 32.448 67.8598 32.0533 66.8998 31.264C65.9611 30.4747 65.2678 29.376 64.8198 27.968C63.9238 29.504 62.8251 30.6347 61.5238 31.36C60.2224 32.0853 58.9104 32.448 57.5877 32.448C57.3104 32.448 57.0864 32.3093 56.9157 32.032C56.7451 31.776 56.6597 31.456 56.6597 31.072C56.6597 30.6667 56.7557 30.336 56.9477 30.08C57.1397 29.824 57.4277 29.696 57.8117 29.696ZM70.4315 32.448C70.1542 32.448 69.9302 32.32 69.7595 32.064C69.5888 31.808 69.5035 31.4773 69.5035 31.072C69.5035 30.1547 69.8875 29.696 70.6555 29.696C71.5942 29.696 72.4262 29.312 73.1515 28.544C73.8982 27.7547 74.4848 26.688 74.9115 25.344C75.3595 24 75.5835 22.5067 75.5835 20.864C75.5835 20.48 75.5622 20.128 75.5195 19.808C75.4768 19.488 75.4235 19.2213 75.3595 19.008C75.1675 18.816 74.9542 18.5067 74.7195 18.08C74.5062 17.6533 74.3142 17.2053 74.1435 16.736C73.9942 16.2453 73.9195 15.8507 73.9195 15.552C74.1755 15.1467 74.5808 14.8373 75.1355 14.624C75.7115 14.3893 76.3408 14.3253 77.0235 14.432C77.4288 15.1787 77.7595 16.1173 78.0155 17.248C78.6555 17.2267 79.5195 17.088 80.6075 16.832C81.2902 16.6827 81.8342 16.5867 82.2395 16.544C82.6662 16.48 83.0288 16.448 83.3275 16.448C84.4795 16.448 85.3862 16.8853 86.0475 17.76C86.7088 18.6133 87.0395 19.776 87.0395 21.248V26.4C87.0395 27.5733 87.1888 28.416 87.4875 28.928C87.8075 29.44 88.3088 29.696 88.9915 29.696C89.2262 29.696 89.4822 29.6427 89.7595 29.536C90.0368 29.4293 90.3248 29.2693 90.6235 29.056C90.9862 29.2267 91.2848 29.5253 91.5195 29.952C91.7542 30.3573 91.8608 30.7627 91.8395 31.168C91.4982 31.552 91.0608 31.8613 90.5275 32.096C89.9942 32.3307 89.4182 32.448 88.7995 32.448H88.7675C85.6742 32.448 84.1275 30.5493 84.1275 26.752V21.792C84.1275 20.832 84.0208 20.16 83.8075 19.776C83.5942 19.392 83.2102 19.2 82.6555 19.2C82.4635 19.2 82.2502 19.2213 82.0155 19.264C81.7808 19.3067 81.3648 19.392 80.7675 19.52C79.7222 19.7333 78.9328 19.8613 78.3995 19.904C78.4208 20.2453 78.4315 20.5867 78.4315 20.928C78.4315 23.232 78.1008 25.248 77.4395 26.976C76.7782 28.704 75.8395 30.048 74.6235 31.008C73.4288 31.968 72.0315 32.448 70.4315 32.448Z" fill="black"/>
</svg>
