<svg width="40" height="40" viewBox="0 0 40 40" fill="none" xmlns="http://www.w3.org/2000/svg">
<rect width="40" height="40" rx="8" fill="#D9D9D9"/>
<g clip-path="url(#clip0_1_351)">
<path d="M20 23C21.95 23 23.5 21.45 23.5 19.5V15.5C23.5 13.55 21.95 12 20 12C18.05 12 16.5 13.55 16.5 15.5V19.5C16.5 21.45 18.05 23 20 23ZM17.5 15.5C17.5 14.1 18.6 13 20 13C21.4 13 22.5 14.1 22.5 15.5V19.5C22.5 20.9 21.4 22 20 22C18.6 22 17.5 20.9 17.5 19.5V15.5Z" fill="black"/>
<path d="M26 19.5H25C25 22.25 22.75 24.5 20 24.5C17.25 24.5 15 22.25 15 19.5H14C14 22.65 16.4 25.2 19.5 25.45V27H18C17.7 27 17.5 27.2 17.5 27.5C17.5 27.8 17.7 28 18 28H22C22.3 28 22.5 27.8 22.5 27.5C22.5 27.2 22.3 27 22 27H20.5V25.45C23.6 25.2 26 22.65 26 19.5Z" fill="black"/>
</g>
<defs>
<clipPath id="clip0_1_351">
<rect width="18" height="18" fill="white" transform="translate(11 11)"/>
</clipPath>
</defs>
</svg>
